<svg xmlns="http://www.w3.org/2000/svg" xmlns:xlink="http://www.w3.org/1999/xlink" viewBox="0 0 500 500"><defs><clipPath id="freepik--clip-path--inject-17"><path d="M145.43,408s41.2,1.83,74.27-2.89L218.64,389l-69.52-6.64Z" style="fill:#fff;stroke:#263238;stroke-linecap:round;stroke-miterlimit:10"></path></clipPath><clipPath id="freepik--clip-path-2--inject-17"><path d="M220,377.21s-54.82,24.2-74.55,30.77l3.69-25.67,55.3-22.88Z" style="fill:#fff;stroke:#263238;stroke-linecap:round;stroke-linejoin:round"></path></clipPath><clipPath id="freepik--clip-path-3--inject-17"><polygon points="166.9 379.43 219.98 377.21 209.42 354.15 157.18 354.43 166.9 379.43" style="fill:#fff;stroke:#263238;stroke-linecap:round;stroke-linejoin:round"></polygon></clipPath><clipPath id="freepik--clip-path-4--inject-17"><path d="M263.52,175.57s6.19,8.59,6.79,11,1.2,14,1.8,12,12.19-22.38,12.39-23.38-3.4-7.39-3.4-7.39-8,5.79-11.78,6.79A25.63,25.63,0,0,1,263.52,175.57Z" style="fill:#fff;stroke:#263238;stroke-linecap:round;stroke-linejoin:round"></path></clipPath><clipPath id="freepik--clip-path-5--inject-17"><path d="M278.08,152.86s1-5.19,3.19-4.79,2,4.39.8,7.19a26.85,26.85,0,0,1-1.6,3.39Z" style="fill:#fff;stroke:#263238;stroke-linecap:round;stroke-linejoin:round"></path></clipPath><clipPath id="freepik--clip-path-6--inject-17"><path d="M251.5,160.65s-3.19-3-3.79,1.2,6.19,5,6.19,5Z" style="fill:#fff;stroke:#263238;stroke-linecap:round;stroke-linejoin:round"></path></clipPath><clipPath id="freepik--clip-path-7--inject-17"><path d="M246.91,148.46s8.79,24.18,12,27.78,11.78,5.59,18.78.2,4.79-11.39,3.19-16.19-8.19-21.38-9.19-23.57-5.79-3.4-8.19-1.6-1.4,4-5.39,5-8.79-.6-11,2.4A5.38,5.38,0,0,0,246.91,148.46Z" style="fill:#fff;stroke:#263238;stroke-linecap:round;stroke-linejoin:round"></path></clipPath><clipPath id="freepik--clip-path-8--inject-17"><path d="M233.59,219.1s-2.78,31.12-14.17,62.25-62.24,73.08-62.24,73.08l9.72,25s36.4-27.5,53.63-68.07,17.79-91.42,17.79-91.42Z" style="fill:#fff;stroke:#263238;stroke-linecap:round;stroke-linejoin:round"></path></clipPath><clipPath id="freepik--clip-path-9--inject-17"><path d="M243.14,162.18s0-5.19,1.2-6.19,7-3.8,8.19-3.2.2,1.4-.6,2-4.55,3.09-4.55,3.09l.56,5.7Z" style="fill:#fff;stroke:#263238;stroke-linecap:round;stroke-linejoin:round"></path></clipPath><clipPath id="freepik--clip-path-10--inject-17"><path d="M252.15,169.16s3,0,3.59-.79,4.2-5,4.4-5.8,0-1.6-2.2-.8a4.68,4.68,0,0,0-2.8,2.8l-2.79.2Z" style="fill:#fff;stroke:#263238;stroke-linecap:round;stroke-linejoin:round"></path></clipPath><clipPath id="freepik--clip-path-11--inject-17"><path d="M238.94,181.16s2.2-11.39,2.6-14.38,0-4.4,1.6-4.6a51.77,51.77,0,0,1,8,.6c1.4.2,2.8.2,2.4,2.4s.8,7-.6,8.39a5.66,5.66,0,0,1-3.6,1.4s.8,2-1.59,3.2a19.85,19.85,0,0,1-3.2,1.4l-1.2,3.19Z" style="fill:#fff;stroke:#263238;stroke-linecap:round;stroke-linejoin:round"></path></clipPath><clipPath id="freepik--clip-path-12--inject-17"><path d="M246.34,220.72a33.15,33.15,0,0,1-6.4-5.39c-2.59-3-4.19-3-7.79-3.2s-7.39-3.39-8.39-3.19-1.2,2-.2,3,6,3.6,6,3.6l-10.78,4.2a5.08,5.08,0,0,0,2,1.39c1.4.6,2.8,0,3.4.6s4.2,1.8,6.39,2.6,9.39-.4,9.39-.4l4.8,3.2Z" style="fill:#fff;stroke:#263238;stroke-linecap:round;stroke-linejoin:round"></path></clipPath></defs><g id="freepik--background-simple--inject-17"><path d="M420.78,139.15S395.16,91,338.58,83.88s-96.08,27.63-137.71,45.46c-21.8,9.34-46.71,5.71-69.85,10.23C57,154,29.13,244.55,60,296c26.68,44.57,73.66,67.75,145.18,73.1S326.84,380.72,390.89,337,450.67,202.44,420.78,139.15Z" style="fill:#407BFF"></path><path d="M420.78,139.15S395.16,91,338.58,83.88s-96.08,27.63-137.71,45.46c-21.8,9.34-46.71,5.71-69.85,10.23C57,154,29.13,244.55,60,296c26.68,44.57,73.66,67.75,145.18,73.1S326.84,380.72,390.89,337,450.67,202.44,420.78,139.15Z" style="fill:#fff;opacity:0.85"></path></g><g id="freepik--Bookshelf--inject-17"><polygon points="104.76 86.94 102.73 71.11 106.39 84.5 106.39 61.77 108.82 79.23 111.26 67.45 111.26 78.82 112.48 56.08 113.69 79.23 118.16 69.07 116.13 81.66 121 76.38 114.1 88.97 104.76 86.94" style="fill:#407BFF"></polygon><polygon points="104.76 86.94 102.73 71.11 106.39 84.5 106.39 61.77 108.82 79.23 111.26 67.45 111.26 78.82 112.48 56.08 113.69 79.23 118.16 69.07 116.13 81.66 121 76.38 114.1 88.97 104.76 86.94" style="fill:#fff;opacity:0.7000000000000001"></polygon><polygon points="117.69 104 104.15 104 102.46 83.51 119.38 83.51 117.69 104" style="fill:#407BFF"></polygon><polygon points="167.53 84 176.35 104.45 163.52 104.45 159.11 96.03 167.53 84" style="fill:#407BFF"></polygon><polygon points="172.69 70.77 149.83 70.77 136.31 104.86 159.16 104.86 172.69 70.77" style="fill:#407BFF"></polygon><polygon points="167.98 75.18 151.04 75.18 141.01 100.44 157.96 100.44 167.98 75.18" style="fill:#fff"></polygon><rect x="91.82" y="110.8" width="325.22" height="260.67" style="fill:#263238"></rect><rect x="91.82" y="110.8" width="325.22" height="260.67" style="fill:#fff;opacity:0.75"></rect><rect x="100.9" y="115.54" width="15.15" height="46.07" style="fill:#407BFF"></rect><rect x="101.89" y="118.25" width="13.11" height="2.83" style="fill:#fff"></rect><rect x="101.89" y="155.19" width="13.11" height="2.83" style="fill:#fff"></rect><rect x="117.02" y="115.54" width="15.15" height="46.07" style="fill:#407BFF"></rect><rect x="118.01" y="118.25" width="13.11" height="2.83" style="fill:#fff"></rect><rect x="118.01" y="155.19" width="13.11" height="2.83" style="fill:#fff"></rect><rect x="133.14" y="115.54" width="15.15" height="46.07" style="fill:#407BFF"></rect><rect x="134.13" y="118.25" width="13.11" height="2.83" style="fill:#fff"></rect><rect x="134.13" y="155.19" width="13.11" height="2.83" style="fill:#fff"></rect><rect x="149.26" y="115.54" width="15.15" height="46.07" style="fill:#407BFF"></rect><rect x="150.25" y="118.25" width="13.11" height="2.83" style="fill:#fff"></rect><rect x="150.25" y="155.19" width="13.11" height="2.83" style="fill:#fff"></rect><rect x="165.37" y="115.54" width="15.15" height="46.07" style="fill:#407BFF"></rect><rect x="166.36" y="118.25" width="13.11" height="2.83" style="fill:#fff"></rect><rect x="166.36" y="155.19" width="13.11" height="2.83" style="fill:#fff"></rect><rect x="181.49" y="115.54" width="15.15" height="46.07" style="fill:#407BFF"></rect><rect x="182.48" y="118.25" width="13.11" height="2.83" style="fill:#fff"></rect><rect x="182.48" y="155.19" width="13.11" height="2.83" style="fill:#fff"></rect><rect x="187.63" y="163.97" width="15.15" height="46.07" style="fill:#407BFF"></rect><rect x="188.62" y="166.67" width="13.11" height="2.83" style="fill:#fff"></rect><rect x="188.62" y="203.62" width="13.11" height="2.83" style="fill:#fff"></rect><rect x="203.74" y="163.97" width="15.15" height="46.07" style="fill:#407BFF"></rect><rect x="204.74" y="166.67" width="13.11" height="2.83" style="fill:#fff"></rect><rect x="204.74" y="203.62" width="13.11" height="2.83" style="fill:#fff"></rect><rect x="219.86" y="163.97" width="15.15" height="46.07" style="fill:#407BFF"></rect><rect x="220.85" y="166.67" width="13.11" height="2.83" style="fill:#fff"></rect><rect x="220.85" y="203.62" width="13.11" height="2.83" style="fill:#fff"></rect><rect x="235.98" y="163.97" width="15.15" height="46.07" style="fill:#407BFF"></rect><rect x="236.97" y="166.67" width="13.11" height="2.83" style="fill:#fff"></rect><rect x="236.97" y="203.62" width="13.11" height="2.83" style="fill:#fff"></rect><rect x="252.1" y="163.97" width="15.15" height="46.07" style="fill:#407BFF"></rect><rect x="253.09" y="166.67" width="13.11" height="2.83" style="fill:#fff"></rect><rect x="253.09" y="203.62" width="13.11" height="2.83" style="fill:#fff"></rect><rect x="268.21" y="163.97" width="15.15" height="46.07" style="fill:#407BFF"></rect><rect x="269.21" y="166.67" width="13.11" height="2.83" style="fill:#fff"></rect><rect x="269.21" y="203.62" width="13.11" height="2.83" style="fill:#fff"></rect><rect x="303.94" y="163.97" width="15.15" height="46.07" style="fill:#407BFF"></rect><rect x="304.93" y="166.67" width="13.11" height="2.83" style="fill:#fff"></rect><rect x="304.93" y="203.62" width="13.11" height="2.83" style="fill:#fff"></rect><rect x="320.06" y="163.97" width="15.15" height="46.07" style="fill:#407BFF"></rect><rect x="321.05" y="166.67" width="13.11" height="2.83" style="fill:#fff"></rect><rect x="321.05" y="203.62" width="13.11" height="2.83" style="fill:#fff"></rect><rect x="336.17" y="163.97" width="15.15" height="46.07" style="fill:#407BFF"></rect><rect x="337.16" y="166.67" width="13.11" height="2.83" style="fill:#fff"></rect><rect x="337.16" y="203.62" width="13.11" height="2.83" style="fill:#fff"></rect><rect x="352.29" y="163.97" width="15.15" height="46.07" style="fill:#407BFF"></rect><rect x="353.28" y="166.67" width="13.11" height="2.83" style="fill:#fff"></rect><rect x="353.28" y="203.62" width="13.11" height="2.83" style="fill:#fff"></rect><rect x="368.41" y="163.97" width="15.15" height="46.07" style="fill:#407BFF"></rect><rect x="369.4" y="166.67" width="13.11" height="2.83" style="fill:#fff"></rect><rect x="369.4" y="203.62" width="13.11" height="2.83" style="fill:#fff"></rect><polygon points="398.77 214.06 384.44 209.5 400.46 165.91 414.8 170.48 398.77 214.06" style="fill:#407BFF"></polygon><polygon points="411.87 175.4 399.47 171.45 400.46 168.77 412.86 172.72 411.87 175.4" style="fill:#fff"></polygon><polygon points="399.02 210.35 386.62 206.4 387.61 203.73 400.01 207.68 399.02 210.35" style="fill:#fff"></polygon><polygon points="348.13 354.19 333.79 349.62 349.81 306.04 364.15 310.6 348.13 354.19" style="fill:#407BFF"></polygon><polygon points="361.22 315.52 348.82 311.57 349.81 308.9 362.21 312.84 361.22 315.52" style="fill:#fff"></polygon><polygon points="348.37 350.48 335.97 346.53 336.96 343.85 349.36 347.8 348.37 350.48" style="fill:#fff"></polygon><rect x="197.61" y="115.54" width="15.15" height="46.07" style="fill:#407BFF"></rect><rect x="198.6" y="118.25" width="13.11" height="2.83" style="fill:#fff"></rect><rect x="198.6" y="155.19" width="13.11" height="2.83" style="fill:#fff"></rect><rect x="99.37" y="213.34" width="15.15" height="46.07" style="fill:#407BFF"></rect><rect x="100.36" y="216.05" width="13.11" height="2.83" style="fill:#fff"></rect><rect x="100.36" y="252.99" width="13.11" height="2.83" style="fill:#fff"></rect><rect x="115.49" y="213.34" width="15.15" height="46.07" style="fill:#407BFF"></rect><rect x="116.48" y="216.05" width="13.11" height="2.83" style="fill:#fff"></rect><rect x="116.48" y="252.99" width="13.11" height="2.83" style="fill:#fff"></rect><rect x="131.61" y="213.34" width="15.15" height="46.07" style="fill:#407BFF"></rect><rect x="132.6" y="216.05" width="13.11" height="2.83" style="fill:#fff"></rect><rect x="132.6" y="252.99" width="13.11" height="2.83" style="fill:#fff"></rect><rect x="147.73" y="213.34" width="15.15" height="46.07" style="fill:#407BFF"></rect><rect x="148.72" y="216.05" width="13.11" height="2.83" style="fill:#fff"></rect><rect x="148.72" y="252.99" width="13.11" height="2.83" style="fill:#fff"></rect><rect x="163.84" y="213.34" width="15.15" height="46.07" style="fill:#407BFF"></rect><rect x="164.83" y="216.05" width="13.11" height="2.83" style="fill:#fff"></rect><rect x="164.83" y="252.99" width="13.11" height="2.83" style="fill:#fff"></rect><rect x="148.86" y="309.24" width="15.15" height="46.07" style="fill:#407BFF"></rect><rect x="149.85" y="311.95" width="13.11" height="2.83" style="fill:#fff"></rect><rect x="149.85" y="348.9" width="13.11" height="2.83" style="fill:#fff"></rect><rect x="164.97" y="309.24" width="15.15" height="46.07" style="fill:#407BFF"></rect><rect x="165.96" y="311.95" width="13.11" height="2.83" style="fill:#fff"></rect><rect x="165.96" y="348.9" width="13.11" height="2.83" style="fill:#fff"></rect><rect x="181.09" y="309.24" width="15.15" height="46.07" style="fill:#407BFF"></rect><rect x="182.08" y="311.95" width="13.11" height="2.83" style="fill:#fff"></rect><rect x="182.08" y="348.9" width="13.11" height="2.83" style="fill:#fff"></rect><rect x="197.21" y="309.24" width="15.15" height="46.07" style="fill:#407BFF"></rect><rect x="198.2" y="311.95" width="13.11" height="2.83" style="fill:#fff"></rect><rect x="198.2" y="348.9" width="13.11" height="2.83" style="fill:#fff"></rect><rect x="213.33" y="309.24" width="15.15" height="46.07" style="fill:#407BFF"></rect><rect x="214.32" y="311.95" width="13.11" height="2.83" style="fill:#fff"></rect><rect x="214.32" y="348.9" width="13.11" height="2.83" style="fill:#fff"></rect><rect x="179.96" y="213.34" width="15.15" height="46.07" style="fill:#407BFF"></rect><rect x="180.95" y="216.05" width="13.11" height="2.83" style="fill:#fff"></rect><rect x="180.95" y="252.99" width="13.11" height="2.83" style="fill:#fff"></rect><rect x="196.08" y="213.34" width="15.15" height="46.07" style="fill:#407BFF"></rect><rect x="197.07" y="216.05" width="13.11" height="2.83" style="fill:#fff"></rect><rect x="197.07" y="252.99" width="13.11" height="2.83" style="fill:#fff"></rect><rect x="212.05" y="213.34" width="15.15" height="46.07" style="fill:#407BFF"></rect><rect x="213.04" y="216.05" width="13.11" height="2.83" style="fill:#fff"></rect><rect x="213.04" y="252.99" width="13.11" height="2.83" style="fill:#fff"></rect><rect x="228.02" y="213.34" width="15.15" height="46.07" style="fill:#407BFF"></rect><rect x="229.01" y="216.05" width="13.11" height="2.83" style="fill:#fff"></rect><rect x="229.01" y="252.99" width="13.11" height="2.83" style="fill:#fff"></rect><polygon points="285.74 256.41 271.23 260.46 257.01 216.34 271.52 212.29 285.74 256.41" style="fill:#407BFF"></polygon><polygon points="272.22 217.87 259.66 221.38 258.79 218.67 271.34 215.16 272.22 217.87" style="fill:#fff"></polygon><polygon points="283.62 253.26 271.07 256.76 270.2 254.05 282.75 250.55 283.62 253.26" style="fill:#fff"></polygon><rect x="243.99" y="213.34" width="15.15" height="46.07" style="fill:#407BFF"></rect><rect x="244.98" y="216.05" width="13.11" height="2.83" style="fill:#fff"></rect><rect x="244.98" y="252.99" width="13.11" height="2.83" style="fill:#fff"></rect><rect x="147.33" y="261.29" width="15.15" height="46.07" style="fill:#407BFF"></rect><rect x="148.32" y="264" width="13.11" height="2.83" style="fill:#fff"></rect><rect x="148.32" y="300.94" width="13.11" height="2.83" style="fill:#fff"></rect><rect x="163.44" y="261.29" width="15.15" height="46.07" style="fill:#407BFF"></rect><rect x="164.43" y="264" width="13.11" height="2.83" style="fill:#fff"></rect><rect x="164.43" y="300.94" width="13.11" height="2.83" style="fill:#fff"></rect><rect x="179.56" y="261.29" width="15.15" height="46.07" style="fill:#407BFF"></rect><rect x="180.55" y="264" width="13.11" height="2.83" style="fill:#fff"></rect><rect x="180.55" y="300.94" width="13.11" height="2.83" style="fill:#fff"></rect><rect x="195.68" y="261.29" width="15.15" height="46.07" style="fill:#407BFF"></rect><rect x="196.67" y="264" width="13.11" height="2.83" style="fill:#fff"></rect><rect x="196.67" y="300.94" width="13.11" height="2.83" style="fill:#fff"></rect><rect x="211.8" y="261.29" width="15.15" height="46.07" style="fill:#407BFF"></rect><rect x="212.79" y="264" width="13.11" height="2.83" style="fill:#fff"></rect><rect x="212.79" y="300.94" width="13.11" height="2.83" style="fill:#fff"></rect><rect x="227.91" y="261.29" width="15.15" height="46.07" style="fill:#407BFF"></rect><rect x="228.9" y="264" width="13.11" height="2.83" style="fill:#fff"></rect><rect x="228.9" y="300.94" width="13.11" height="2.83" style="fill:#fff"></rect><rect x="244.03" y="261.29" width="15.15" height="46.07" style="fill:#407BFF"></rect><rect x="245.02" y="264" width="13.11" height="2.83" style="fill:#fff"></rect><rect x="245.02" y="300.94" width="13.11" height="2.83" style="fill:#fff"></rect><rect x="300.37" y="261.29" width="15.15" height="46.07" style="fill:#407BFF"></rect><rect x="301.36" y="264" width="13.11" height="2.83" style="fill:#fff"></rect><rect x="301.36" y="300.94" width="13.11" height="2.83" style="fill:#fff"></rect><rect x="316.48" y="261.29" width="15.15" height="46.07" style="fill:#407BFF"></rect><rect x="317.48" y="264" width="13.11" height="2.83" style="fill:#fff"></rect><rect x="317.48" y="300.94" width="13.11" height="2.83" style="fill:#fff"></rect><rect x="332.6" y="261.29" width="15.15" height="46.07" style="fill:#407BFF"></rect><rect x="333.59" y="264" width="13.11" height="2.83" style="fill:#fff"></rect><rect x="333.59" y="300.94" width="13.11" height="2.83" style="fill:#fff"></rect><rect x="348.72" y="261.29" width="15.15" height="46.07" style="fill:#407BFF"></rect><rect x="349.71" y="264" width="13.11" height="2.83" style="fill:#fff"></rect><rect x="349.71" y="300.94" width="13.11" height="2.83" style="fill:#fff"></rect><rect x="364.84" y="261.29" width="15.15" height="46.07" style="fill:#407BFF"></rect><rect x="365.83" y="264" width="13.11" height="2.83" style="fill:#fff"></rect><rect x="365.83" y="300.94" width="13.11" height="2.83" style="fill:#fff"></rect><rect x="380.95" y="261.29" width="15.15" height="46.07" style="fill:#407BFF"></rect><rect x="381.95" y="264" width="13.11" height="2.83" style="fill:#fff"></rect><rect x="381.95" y="300.94" width="13.11" height="2.83" style="fill:#fff"></rect><rect x="397.07" y="261.29" width="15.15" height="46.07" style="fill:#407BFF"></rect><rect x="398.06" y="264" width="13.11" height="2.83" style="fill:#fff"></rect><rect x="398.06" y="300.94" width="13.11" height="2.83" style="fill:#fff"></rect><rect x="221.25" y="115.54" width="15.15" height="46.07" style="fill:#407BFF"></rect><rect x="222.24" y="118.25" width="13.11" height="2.83" style="fill:#fff"></rect><rect x="222.24" y="155.19" width="13.11" height="2.83" style="fill:#fff"></rect><rect x="238.44" y="115.54" width="15.15" height="46.07" style="fill:#407BFF"></rect><rect x="239.43" y="118.25" width="13.11" height="2.83" style="fill:#fff"></rect><rect x="239.43" y="155.19" width="13.11" height="2.83" style="fill:#fff"></rect><rect x="255.63" y="115.54" width="15.15" height="46.07" style="fill:#407BFF"></rect><rect x="256.62" y="118.25" width="13.11" height="2.83" style="fill:#fff"></rect><rect x="256.62" y="155.19" width="13.11" height="2.83" style="fill:#fff"></rect><rect x="272.82" y="115.54" width="15.15" height="46.07" style="fill:#407BFF"></rect><rect x="273.81" y="118.25" width="13.11" height="2.83" style="fill:#fff"></rect><rect x="273.81" y="155.19" width="13.11" height="2.83" style="fill:#fff"></rect><polygon points="167.51 209.41 161.4 210.93 148.78 167.13 154.89 165.61 167.51 209.41" style="fill:#407BFF"></polygon><polygon points="155.98 170.98 150.7 172.29 149.93 169.6 155.21 168.29 155.98 170.98" style="fill:#fff"></polygon><polygon points="166.1 206.1 160.82 207.42 160.05 204.73 165.32 203.41 166.1 206.1" style="fill:#fff"></polygon><rect x="166.81" y="165.6" width="6.32" height="45.35" style="fill:#407BFF"></rect><rect x="167.22" y="168.26" width="5.47" height="2.78" style="fill:#fff"></rect><rect x="167.22" y="204.63" width="5.47" height="2.78" style="fill:#fff"></rect><rect x="173.61" y="165.6" width="6.32" height="45.35" style="fill:#407BFF"></rect><rect x="174.02" y="168.26" width="5.47" height="2.78" style="fill:#fff"></rect><rect x="174.02" y="204.63" width="5.47" height="2.78" style="fill:#fff"></rect><path d="M102.16,194.63a17.38,17.38,0,0,1,0,13.19h43.89s5.42-1.4,5.42-6.59a9.53,9.53,0,0,0-5.28-6.46Z" style="fill:#fff"></path><path d="M148.15,195.75c-1.91-1.1-3.66-1-5.86-1h-4.15l-10.81,0-21-.07c-.34,0-3.75.3-3.9,0a13.56,13.56,0,0,1,.86,2.7h43.83V207.4a6.89,6.89,0,0,0,4.36-6.17,5.75,5.75,0,0,0-2.91-5.23Z" style="opacity:0.25"></path><path d="M144.4,209.65H100.31a1.41,1.41,0,0,1,0-2.81H144.4a5.41,5.41,0,1,0,0-10.81H100.71a1.4,1.4,0,0,1,0-2.8H144.4a8.21,8.21,0,0,1,0,16.42Z" style="fill:#407BFF"></path><path d="M149.36,178.38a17.39,17.39,0,0,0,0,13.19H105.47s-5.42-1.4-5.42-6.59a9.53,9.53,0,0,1,5.28-6.46Z" style="fill:#fff"></path><path d="M103.37,179.5c1.91-1.1,3.66-1,5.86-1h4.15l10.81,0,21-.06c.34,0,3.75.3,3.9,0a13.89,13.89,0,0,0-.87,2.71H104.41v10.06a6.89,6.89,0,0,1-4.36-6.17,5.75,5.75,0,0,1,2.91-5.23Z" style="opacity:0.25"></path><path d="M107.12,193.4h44.09a1.41,1.41,0,0,0,0-2.81H107.12a5.4,5.4,0,1,1,0-10.8h43.69a1.41,1.41,0,0,0,0-2.81H107.12a8.21,8.21,0,0,0,0,16.42Z" style="fill:#407BFF"></path><path d="M362.84,243.53a17.39,17.39,0,0,1,0,13.19h43.89s5.42-1.4,5.42-6.59a9.53,9.53,0,0,0-5.28-6.46Z" style="fill:#fff"></path><path d="M408.83,244.65c-1.91-1.1-3.66-1-5.86-1h-4.15l-10.81,0-21-.06c-.34,0-3.75.29-3.9,0a13.56,13.56,0,0,1,.86,2.7h43.83V256.3a6.89,6.89,0,0,0,4.36-6.17,5.75,5.75,0,0,0-2.91-5.23Z" style="opacity:0.25"></path><path d="M405.08,258.55H361a1.41,1.41,0,0,1,0-2.81h44.09a5.4,5.4,0,1,0,0-10.8H361.39a1.41,1.41,0,0,1,0-2.81h43.69a8.21,8.21,0,0,1,0,16.42Z" style="fill:#407BFF"></path><path d="M410,227.28a17.39,17.39,0,0,0,0,13.19H366.15s-5.42-1.4-5.42-6.59a9.53,9.53,0,0,1,5.28-6.46Z" style="fill:#fff"></path><path d="M364.05,228.4c1.91-1.1,3.66-1,5.86-1h4.15l10.81,0,21-.06c.34,0,3.75.3,3.9,0a13.89,13.89,0,0,0-.87,2.71H365.09v10.06a6.89,6.89,0,0,1-4.36-6.17,5.75,5.75,0,0,1,2.91-5.23Z" style="opacity:0.25"></path><path d="M367.8,242.3h44.09a1.41,1.41,0,0,0,0-2.81H367.8a5.4,5.4,0,1,1,0-10.8h43.69a1.41,1.41,0,0,0,0-2.81H367.8a8.21,8.21,0,0,0,0,16.42Z" style="fill:#407BFF"></path><path d="M361.82,337.06a17.38,17.38,0,0,1,0,13.19h43.89s5.42-1.4,5.42-6.59a9.53,9.53,0,0,0-5.29-6.46Z" style="fill:#fff"></path><path d="M407.81,338.18c-1.91-1.1-3.66-1-5.86-1H397.8l-10.81,0-21-.07c-.35,0-3.75.3-3.9,0a13.27,13.27,0,0,1,.86,2.7h43.83v10.07a6.89,6.89,0,0,0,4.36-6.17,5.75,5.75,0,0,0-2.91-5.23Z" style="opacity:0.25"></path><path d="M404.06,352.08H360a1.41,1.41,0,0,1,0-2.81h44.09a5.41,5.41,0,1,0,0-10.81H360.37a1.4,1.4,0,0,1,0-2.8h43.69a8.21,8.21,0,0,1,0,16.42Z" style="fill:#407BFF"></path><path d="M409,320.81A17.39,17.39,0,0,0,409,334H365.13s-5.42-1.4-5.42-6.59A9.53,9.53,0,0,1,365,321Z" style="fill:#fff"></path><path d="M363,321.93c1.91-1.1,3.66-1,5.86-1H373l10.81,0,21-.06c.34,0,3.75.3,3.9,0a13.92,13.92,0,0,0-.87,2.7H364.07v10.07a6.89,6.89,0,0,1-4.36-6.17,5.75,5.75,0,0,1,2.91-5.23Z" style="opacity:0.25"></path><path d="M366.78,335.83h44.09a1.41,1.41,0,0,0,0-2.81H366.78a5.4,5.4,0,1,1,0-10.8h43.69a1.41,1.41,0,0,0,0-2.81H366.78a8.21,8.21,0,0,0,0,16.42Z" style="fill:#407BFF"></path><path d="M283.88,337.06a17.38,17.38,0,0,1,0,13.19h43.89s5.42-1.4,5.42-6.59a9.53,9.53,0,0,0-5.29-6.46Z" style="fill:#fff"></path><path d="M329.87,338.18c-1.91-1.1-3.66-1-5.86-1h-4.15l-10.81,0-21-.07c-.35,0-3.75.3-3.9,0a13.27,13.27,0,0,1,.86,2.7h43.83v10.07a6.89,6.89,0,0,0,4.36-6.17,5.74,5.74,0,0,0-2.92-5.23Z" style="opacity:0.25"></path><path d="M326.12,352.08H282a1.41,1.41,0,0,1,0-2.81h44.09a5.41,5.41,0,1,0,0-10.81H282.43a1.4,1.4,0,0,1,0-2.8h43.69a8.21,8.21,0,0,1,0,16.42Z" style="fill:#407BFF"></path><path d="M283.88,320.81a17.39,17.39,0,0,1,0,13.19h43.89s5.42-1.4,5.42-6.59A9.53,9.53,0,0,0,327.9,321Z" style="fill:#fff"></path><path d="M329.87,321.93c-1.91-1.1-3.66-1-5.86-1h-4.15l-10.81,0-21-.06c-.35,0-3.75.3-3.9,0a13.56,13.56,0,0,1,.86,2.7h43.83v10.07a6.89,6.89,0,0,0,4.36-6.17,5.74,5.74,0,0,0-2.92-5.23Z" style="opacity:0.25"></path><path d="M326.12,335.83H282a1.41,1.41,0,0,1,0-2.81h44.09a5.4,5.4,0,1,0,0-10.8H282.43a1.41,1.41,0,0,1,0-2.81h43.69a8.21,8.21,0,0,1,0,16.42Z" style="fill:#407BFF"></path><path d="M98.59,337.06a17.38,17.38,0,0,1,0,13.19h43.89s5.42-1.4,5.42-6.59a9.53,9.53,0,0,0-5.29-6.46Z" style="fill:#fff"></path><path d="M144.58,338.18c-1.91-1.1-3.66-1-5.86-1h-4.15l-10.81,0-21-.07c-.35,0-3.75.3-3.9,0a13.27,13.27,0,0,1,.86,2.7h43.83v10.07a6.89,6.89,0,0,0,4.36-6.17,5.75,5.75,0,0,0-2.91-5.23Z" style="opacity:0.25"></path><path d="M140.83,352.08H96.74a1.41,1.41,0,0,1,0-2.81h44.09a5.41,5.41,0,1,0,0-10.81H97.14a1.4,1.4,0,0,1,0-2.8h43.69a8.21,8.21,0,0,1,0,16.42Z" style="fill:#407BFF"></path><path d="M145.79,320.81a17.39,17.39,0,0,0,0,13.19H101.9s-5.42-1.4-5.42-6.59a9.53,9.53,0,0,1,5.28-6.46Z" style="fill:#fff"></path><path d="M99.8,321.93c1.91-1.1,3.66-1,5.86-1h4.15l10.81,0,21-.06c.34,0,3.75.3,3.9,0a13.92,13.92,0,0,0-.87,2.7H100.84v10.07a6.89,6.89,0,0,1-4.36-6.17,5.75,5.75,0,0,1,2.91-5.23Z" style="opacity:0.25"></path><path d="M103.55,335.83h44.09a1.41,1.41,0,0,0,0-2.81H103.55a5.4,5.4,0,1,1,0-10.8h43.69a1.41,1.41,0,0,0,0-2.81H103.55a8.21,8.21,0,0,0,0,16.42Z" style="fill:#407BFF"></path><path d="M308.26,243.53a17.39,17.39,0,0,1,0,13.19h43.89s5.42-1.4,5.42-6.59a9.56,9.56,0,0,0-5.29-6.46Z" style="fill:#fff"></path><path d="M354.25,244.65c-1.92-1.1-3.67-1-5.87-1h-4.15l-10.8,0-21-.06c-.34,0-3.74.29-3.89,0a14.42,14.42,0,0,1,.86,2.7h43.83V256.3a6.9,6.9,0,0,0,4.36-6.17,5.78,5.78,0,0,0-2.92-5.23Z" style="opacity:0.25"></path><path d="M350.5,258.55H306.41a1.41,1.41,0,0,1,0-2.81H350.5a5.4,5.4,0,1,0,0-10.8H306.8a1.41,1.41,0,0,1,0-2.81h43.7a8.21,8.21,0,0,1,0,16.42Z" style="fill:#407BFF"></path><path d="M355.45,227.28a17.44,17.44,0,0,0,0,13.19H311.56s-5.42-1.4-5.42-6.59a9.56,9.56,0,0,1,5.29-6.46Z" style="fill:#fff"></path><path d="M309.46,228.4c1.92-1.1,3.67-1,5.87-1h4.15l10.8,0,21-.06c.34,0,3.74.3,3.89,0a14.38,14.38,0,0,0-.86,2.71H310.5v10.06a6.9,6.9,0,0,1-4.36-6.17,5.78,5.78,0,0,1,2.92-5.23Z" style="opacity:0.25"></path><path d="M313.21,242.3H357.3a1.41,1.41,0,0,0,0-2.81H313.21a5.4,5.4,0,1,1,0-10.8h43.7a1.41,1.41,0,0,0,0-2.81h-43.7a8.21,8.21,0,0,0,0,16.42Z" style="fill:#407BFF"></path><path d="M422,104H84.08v12.6h4.57V424.06H96v-4.15H412.87v4.15h7.3V116.57H422ZM143.44,263.12H412.87v41.76H143.44ZM96,256.82V215.06H412.87v41.76Zm0-48.06V167H412.87v41.76Zm198.19-92.19V160.7H96V116.57ZM96,352.94V311.18H412.87v41.76Z" style="fill:#263238"></path><path d="M422,104H84.08v12.6h4.57V424.06H96v-4.15H412.87v4.15h7.3V116.57H422ZM143.44,263.12H412.87v41.76H143.44ZM96,256.82V215.06H412.87v41.76Zm0-48.06V167H412.87v41.76Zm198.19-92.19V160.7H96V116.57ZM96,352.94V311.18H412.87v41.76Z" style="fill:#fff;opacity:0.9"></path><ellipse cx="347.16" cy="137.69" rx="5.03" ry="4.68" style="fill:#fff"></ellipse><ellipse cx="366.56" cy="137.69" rx="5.03" ry="4.68" style="fill:#fff"></ellipse></g><g id="freepik--Character--inject-17"><polygon points="219.7 405.09 218.03 407.59 220.53 409.26 218.87 412.04 221.09 413.98 216.92 416.76 219.14 418.15 218.59 420.1 220.81 421.21 218.59 424.54 150.51 424.54 149.12 421.21 150.79 419.26 148.29 417.87 152.18 416.76 149.68 415.09 152.45 413.98 148.84 412.59 158.01 409.81 147.73 408.15 151.06 382.86 218.64 394.48 219.7 405.09" style="fill:#fff;stroke:#263238;stroke-linecap:round;stroke-miterlimit:10"></polygon><path d="M216.77,408.57s-32,3.44-51.6,1l10,2.41-18.58,1,17.54,2.75-18.57,1.72,14.79,3.1L152.79,422h63.63L202,418.54l8.6-1.37-7.92-1.38,14.45-1.37-14.79-.69,13.76-1.38-14.79-.69S208.86,410.29,216.77,408.57Z" style="opacity:0.25"></path><path d="M145.43,408s41.2,1.83,74.27-2.89L218.64,389l-69.52-6.64Z" style="fill:#fff"></path><g style="clip-path:url(#freepik--clip-path--inject-17)"><path d="M145.43,408s41.2,1.83,74.27-2.89L218.64,389l-69.52-6.64Z" style="opacity:0.1"></path></g><path d="M145.43,408s41.2,1.83,74.27-2.89L218.64,389l-69.52-6.64Z" style="fill:none;stroke:#263238;stroke-linecap:round;stroke-miterlimit:10"></path><line x1="161.74" y1="386.82" x2="160.5" y2="399.95" style="fill:none;stroke:#263238;stroke-linecap:round;stroke-linejoin:round"></line><line x1="172" y1="387.64" x2="171.59" y2="401.19" style="fill:none;stroke:#263238;stroke-linecap:round;stroke-linejoin:round"></line><line x1="182.26" y1="388.87" x2="181.85" y2="402.01" style="fill:none;stroke:#263238;stroke-linecap:round;stroke-linejoin:round"></line><line x1="191.71" y1="391.74" x2="191.71" y2="402.42" style="fill:none;stroke:#263238;stroke-linecap:round;stroke-linejoin:round"></line><line x1="202.79" y1="394.21" x2="203.2" y2="402.42" style="fill:none;stroke:#263238;stroke-linecap:round;stroke-linejoin:round"></line><line x1="212.65" y1="395.85" x2="213.06" y2="402.42" style="fill:none;stroke:#263238;stroke-linecap:round;stroke-linejoin:round"></line><path d="M220,377.21s-54.82,24.2-74.55,30.77l3.69-25.67,55.3-22.88Z" style="fill:#fff"></path><g style="clip-path:url(#freepik--clip-path-2--inject-17)"><path d="M174.84,396.37c21.73-7.05,45.14-19.16,45.14-19.16l-15.56-17.78-36.65,12.89Z" style="opacity:0.1"></path></g><path d="M220,377.21s-54.82,24.2-74.55,30.77l3.69-25.67,55.3-22.88Z" style="fill:none;stroke:#263238;stroke-linecap:round;stroke-linejoin:round"></path><polygon points="166.9 379.43 219.98 377.21 209.42 354.15 157.18 354.43 166.9 379.43" style="fill:#fff"></polygon><g style="clip-path:url(#freepik--clip-path-3--inject-17)"><polygon points="166.9 379.43 219.98 377.21 209.42 354.15 157.18 354.43 166.9 379.43" style="opacity:0.1"></polygon></g><polygon points="166.9 379.43 219.98 377.21 209.42 354.15 157.18 354.43 166.9 379.43" style="fill:none;stroke:#263238;stroke-linecap:round;stroke-linejoin:round"></polygon><line x1="171.18" y1="358.08" x2="176.11" y2="374.5" style="fill:none;stroke:#263238;stroke-linecap:round;stroke-linejoin:round"></line><line x1="180.62" y1="357.25" x2="185.55" y2="374.5" style="fill:none;stroke:#263238;stroke-linecap:round;stroke-linejoin:round"></line><line x1="190.07" y1="356.84" x2="194.58" y2="373.27" style="fill:none;stroke:#263238;stroke-linecap:round;stroke-linejoin:round"></line><line x1="199.92" y1="356.84" x2="204.85" y2="372.86" style="fill:none;stroke:#263238;stroke-linecap:round;stroke-linejoin:round"></line><path d="M222.32,289.56l15.9,55.4-6.36,2.1-29-62.88S213.86,280.59,222.32,289.56Z" style="fill:#263238;stroke:#263238;stroke-linecap:round;stroke-linejoin:round"></path><path d="M238.22,345s4.11,6.92,4.11,9.23-7.44,2.05-10.77,2.56S221,362.14,218,360.86c0,0-1.79-1,0-3.08s10.11-6.06,13.9-10.72Z" style="fill:#fff;stroke:#263238;stroke-linecap:round;stroke-linejoin:round"></path><path d="M290.38,142.86c0,1-1.16,1.94-1.26,2.93s.84,2.15.63,3.12-1.53,1.66-1.84,2.6.37,2.28,0,3.19-1.85,1.3-2.34,2.16-.12,2.3-.7,3.11-2.08.88-2.75,1.62-.59,2.23-1.33,2.9-2.21.43-3,1-1,2.06-1.9,2.56-2.25,0-3.16.37-1.44,1.8-2.39,2.11-2.2-.51-3.18-.31-1.78,1.46-2.78,1.57-2-1-3-1-2.06,1.06-3,1-1.82-1.36-2.78-1.57-2.24.61-3.18.3-1.48-1.7-2.39-2.1-2.31.12-3.17-.37-1.09-2-1.9-2.56-2.28-.36-3-1-.66-2.16-1.32-2.9-2.16-.82-2.75-1.62-.2-2.25-.7-3.11-1.94-1.25-2.34-2.16.27-2.24,0-3.19-1.64-1.62-1.84-2.6.73-2.12.63-3.12-1.26-1.92-1.26-2.93,1.16-2,1.26-2.93-.84-2.16-.63-3.13,1.53-1.65,1.84-2.6-.37-2.28,0-3.18,1.85-1.3,2.34-2.16.12-2.31.7-3.11,2.08-.88,2.75-1.62.59-2.23,1.33-2.9,2.21-.43,3-1,1-2.06,1.9-2.56,2.25,0,3.16-.37,1.44-1.8,2.39-2.11,2.2.51,3.18.3,1.78-1.46,2.78-1.56,2,1,3,1,2.06-1.06,3-1,1.82,1.36,2.78,1.56,2.24-.6,3.18-.3,1.48,1.71,2.39,2.11,2.31-.13,3.17.37,1.09,2,1.9,2.56,2.28.35,3,1,.66,2.16,1.32,2.9,2.16.81,2.75,1.62.2,2.25.7,3.11,1.94,1.24,2.34,2.16-.27,2.23,0,3.19,1.64,1.61,1.84,2.6-.73,2.12-.63,3.12S290.38,141.85,290.38,142.86Z" style="fill:#263238"></path><path d="M238.94,181.16s-10,22.18-15,34.17-1.23,22.24,2,23.38c3.39,1.2,27.93-7.53,33.76-9.79,5.54-2.15,5.6-2,5.6-2s.4,18.58.4,20.78-4,10.19-3.6,12.59,5.8,7,21.78,8.59,25.18-2.2,26.77-4.4,1.6-5,1.6-9.39-2.2-29.37-5.39-49-11.59-28-15.59-30.17-10.79.8-17.58,5.39-10.59,13.59-11.59,16-20.18,18.38-21.58,19.78,2.8-34.37,2.8-34.37Z" style="fill:#fff;stroke:#263238;stroke-linecap:round;stroke-linejoin:round"></path><line x1="237.28" y1="184.91" x2="242.78" y2="186.84" style="fill:none;stroke:#263238;stroke-linecap:round;stroke-linejoin:round"></line><path d="M240.54,217.13a68.48,68.48,0,0,1-1.6,9.59" style="fill:#fff;stroke:#263238;stroke-linecap:round;stroke-linejoin:round"></path><line x1="265.32" y1="226.92" x2="262.92" y2="210.33" style="fill:none;stroke:#263238;stroke-linecap:round;stroke-linejoin:round"></line><path d="M269.51,182.16s-5.79,14-4.59,14,3.8-4.4,3.8-4.4l3.39,6.8s.6-16,.2-16.59S270.31,180,269.51,182.16Z" style="fill:#fff;stroke:#263238;stroke-linecap:round;stroke-linejoin:round"></path><path d="M263.52,175.57s6.19,8.59,6.79,11,1.2,14,1.8,12,12.19-22.38,12.39-23.38-3.4-7.39-3.4-7.39-8,5.79-11.78,6.79A25.63,25.63,0,0,1,263.52,175.57Z" style="fill:#fff"></path><g style="clip-path:url(#freepik--clip-path-4--inject-17)"><path d="M263.52,175.57s6.19,8.59,6.79,11,1.2,14,1.8,12,12.19-22.38,12.39-23.38-3.4-7.39-3.4-7.39-8,5.79-11.78,6.79A25.63,25.63,0,0,1,263.52,175.57Z" style="opacity:0.1"></path></g><path d="M263.52,175.57s6.19,8.59,6.79,11,1.2,14,1.8,12,12.19-22.38,12.39-23.38-3.4-7.39-3.4-7.39-8,5.79-11.78,6.79A25.63,25.63,0,0,1,263.52,175.57Z" style="fill:none;stroke:#263238;stroke-linecap:round;stroke-linejoin:round"></path><polygon points="273.11 189.35 272.11 198.55 276.91 192.15 273.11 189.35" style="fill:#fff;stroke:#263238;stroke-linecap:round;stroke-linejoin:round"></polygon><polygon points="273.11 189.35 277.11 195.15 291.1 175.37 285.7 170.77 273.11 189.35" style="fill:#fff;stroke:#263238;stroke-linecap:round;stroke-linejoin:round"></polygon><path d="M278.08,152.86s1-5.19,3.19-4.79,2,4.39.8,7.19a26.85,26.85,0,0,1-1.6,3.39Z" style="fill:#fff"></path><g style="clip-path:url(#freepik--clip-path-5--inject-17)"><path d="M278.08,152.86s1-5.19,3.19-4.79,2,4.39.8,7.19a26.85,26.85,0,0,1-1.6,3.39Z" style="opacity:0.1"></path></g><path d="M278.08,152.86s1-5.19,3.19-4.79,2,4.39.8,7.19a26.85,26.85,0,0,1-1.6,3.39Z" style="fill:none;stroke:#263238;stroke-linecap:round;stroke-linejoin:round"></path><path d="M251.5,160.65s-3.19-3-3.79,1.2,6.19,5,6.19,5Z" style="fill:#fff"></path><g style="clip-path:url(#freepik--clip-path-6--inject-17)"><path d="M251.5,160.65s-3.19-3-3.79,1.2,6.19,5,6.19,5Z" style="opacity:0.1"></path></g><path d="M251.5,160.65s-3.19-3-3.79,1.2,6.19,5,6.19,5Z" style="fill:none;stroke:#263238;stroke-linecap:round;stroke-linejoin:round"></path><path d="M246.91,148.46s8.79,24.18,12,27.78,11.78,5.59,18.78.2,4.79-11.39,3.19-16.19-8.19-21.38-9.19-23.57-5.79-3.4-8.19-1.6-1.4,4-5.39,5-8.79-.6-11,2.4A5.38,5.38,0,0,0,246.91,148.46Z" style="fill:#fff"></path><g style="clip-path:url(#freepik--clip-path-7--inject-17)"><path d="M246.91,148.46s8.79,24.18,12,27.78,11.78,5.59,18.78.2,4.79-11.39,3.19-16.19-8.19-21.38-9.19-23.57-5.79-3.4-8.19-1.6-1.4,4-5.39,5-8.79-.6-11,2.4A5.38,5.38,0,0,0,246.91,148.46Z" style="opacity:0.1"></path></g><path d="M246.91,148.46s8.79,24.18,12,27.78,11.78,5.59,18.78.2,4.79-11.39,3.19-16.19-8.19-21.38-9.19-23.57-5.79-3.4-8.19-1.6-1.4,4-5.39,5-8.79-.6-11,2.4A5.38,5.38,0,0,0,246.91,148.46Z" style="fill:none;stroke:#263238;stroke-linecap:round;stroke-linejoin:round"></path><path d="M251.52,153.87h10.15a1.51,1.51,0,0,1,1.51,1.51v3a3.12,3.12,0,0,1-3.12,3.12h-6.92a3.12,3.12,0,0,1-3.12-3.12v-3a1.51,1.51,0,0,1,1.51-1.51Z" transform="translate(-38.63 98.09) rotate(-20.16)" style="fill:#fff;stroke:#263238;stroke-linecap:round;stroke-linejoin:round"></path><path d="M267,148.18h10.15a1.51,1.51,0,0,1,1.51,1.51v3a3.12,3.12,0,0,1-3.12,3.12h-6.92a3.12,3.12,0,0,1-3.12-3.12v-3a1.51,1.51,0,0,1,1.51-1.51Z" transform="translate(-35.72 103.09) rotate(-20.16)" style="fill:#fff;stroke:#263238;stroke-linecap:round;stroke-linejoin:round"></path><line x1="254.09" y1="162.67" x2="256.87" y2="155.79" style="fill:none;stroke:#263238;stroke-linecap:round;stroke-linejoin:round;stroke-width:0.5px"></line><line x1="259" y1="153.67" x2="256.87" y2="159.07" style="fill:none;stroke:#263238;stroke-linecap:round;stroke-linejoin:round;stroke-width:0.5px"></line><line x1="269.8" y1="156.61" x2="272.59" y2="149.74" style="fill:none;stroke:#263238;stroke-linecap:round;stroke-linejoin:round;stroke-width:0.5px"></line><line x1="274.71" y1="147.61" x2="272.59" y2="153.01" style="fill:none;stroke:#263238;stroke-linecap:round;stroke-linejoin:round;stroke-width:0.5px"></line><line x1="259.88" y1="152.41" x2="266.17" y2="150.1" style="fill:none;stroke:#263238;stroke-linecap:round;stroke-linejoin:round"></line><path d="M262,153.41a6.52,6.52,0,0,1,3.15-1.16" style="fill:none;stroke:#263238;stroke-linecap:round;stroke-linejoin:round"></path><path d="M265.48,148a7.75,7.75,0,0,1,7.79-3.15" style="fill:none;stroke:#263238;stroke-linecap:round;stroke-linejoin:round"></path><path d="M259.72,150.73a6.17,6.17,0,0,0-8.35.37" style="fill:none;stroke:#263238;stroke-linecap:round;stroke-linejoin:round"></path><path d="M263,161.7s.5,2,.94,2.17c1.53.64,6.51-.62,6.42-2.86a7,7,0,0,0-.73-2.08" style="fill:none;stroke:#263238;stroke-linecap:round;stroke-linejoin:round"></path><path d="M265.64,168.53a7.78,7.78,0,0,0,6.3-2.59" style="fill:none;stroke:#263238;stroke-linecap:round;stroke-linejoin:round"></path><path d="M233.59,219.1s-2.78,31.12-14.17,62.25-62.24,73.08-62.24,73.08l9.72,25s36.4-27.5,53.63-68.07,17.79-91.42,17.79-91.42Z" style="fill:#fff"></path><g style="clip-path:url(#freepik--clip-path-8--inject-17)"><path d="M217.42,286.1,225,299.63c12.88-38,13.34-79.69,13.34-79.69l-4.73-.84s-2.78,31.12-14.17,62.25C218.85,282.91,218.17,284.5,217.42,286.1Z" style="opacity:0.1"></path></g><path d="M233.59,219.1s-2.78,31.12-14.17,62.25-62.24,73.08-62.24,73.08l9.72,25s36.4-27.5,53.63-68.07,17.79-91.42,17.79-91.42Z" style="fill:none;stroke:#263238;stroke-linecap:round;stroke-linejoin:round"></path><path d="M188,274.75s-4.36,4.15-2.28,9.56,37.81,65.24,37.81,65.24l8.31-1.87s-16.62-54.44-19.74-61.09-5.61-10.8-7.68-12.26" style="fill:#263238;stroke:#263238;stroke-linecap:round;stroke-linejoin:round"></path><path d="M223.55,349.55s-10.59,7.27-15.17,9.14-3.11,4.16,0,4.16,15-1.46,20-2.08,7.69-.21,7.9-2.91-4.37-10.8-4.37-10.8Z" style="fill:#fff;stroke:#263238;stroke-linecap:round;stroke-linejoin:round"></path><path d="M243.14,162.18s0-5.19,1.2-6.19,7-3.8,8.19-3.2.2,1.4-.6,2-4.55,3.09-4.55,3.09l.56,5.7Z" style="fill:#fff"></path><g style="clip-path:url(#freepik--clip-path-9--inject-17)"><path d="M243.14,162.18s0-5.19,1.2-6.19,7-3.8,8.19-3.2.2,1.4-.6,2-4.55,3.09-4.55,3.09l.56,5.7Z" style="opacity:0.1"></path></g><path d="M243.14,162.18s0-5.19,1.2-6.19,7-3.8,8.19-3.2.2,1.4-.6,2-4.55,3.09-4.55,3.09l.56,5.7Z" style="fill:none;stroke:#263238;stroke-linecap:round;stroke-linejoin:round"></path><path d="M252.15,169.16s3,0,3.59-.79,4.2-5,4.4-5.8,0-1.6-2.2-.8a4.68,4.68,0,0,0-2.8,2.8l-2.79.2Z" style="fill:#fff"></path><g style="clip-path:url(#freepik--clip-path-10--inject-17)"><path d="M252.15,169.16s3,0,3.59-.79,4.2-5,4.4-5.8,0-1.6-2.2-.8a4.68,4.68,0,0,0-2.8,2.8l-2.79.2Z" style="opacity:0.1"></path></g><path d="M252.15,169.16s3,0,3.59-.79,4.2-5,4.4-5.8,0-1.6-2.2-.8a4.68,4.68,0,0,0-2.8,2.8l-2.79.2Z" style="fill:none;stroke:#263238;stroke-linecap:round;stroke-linejoin:round"></path><path d="M238.94,181.16s2.2-11.39,2.6-14.38,0-4.4,1.6-4.6a51.77,51.77,0,0,1,8,.6c1.4.2,2.8.2,2.4,2.4s.8,7-.6,8.39a5.66,5.66,0,0,1-3.6,1.4s.8,2-1.59,3.2a19.85,19.85,0,0,1-3.2,1.4l-1.2,3.19Z" style="fill:#fff"></path><g style="clip-path:url(#freepik--clip-path-11--inject-17)"><path d="M238.94,181.16s2.2-11.39,2.6-14.38,0-4.4,1.6-4.6a51.77,51.77,0,0,1,8,.6c1.4.2,2.8.2,2.4,2.4s.8,7-.6,8.39a5.66,5.66,0,0,1-3.6,1.4s.8,2-1.59,3.2a19.85,19.85,0,0,1-3.2,1.4l-1.2,3.19Z" style="opacity:0.1"></path></g><path d="M238.94,181.16s2.2-11.39,2.6-14.38,0-4.4,1.6-4.6a51.77,51.77,0,0,1,8,.6c1.4.2,2.8.2,2.4,2.4s.8,7-.6,8.39a5.66,5.66,0,0,1-3.6,1.4s.8,2-1.59,3.2a19.85,19.85,0,0,1-3.2,1.4l-1.2,3.19Z" style="fill:none;stroke:#263238;stroke-linecap:round;stroke-linejoin:round"></path><polyline points="249.34 174.97 248.94 171.17 246.34 170.77" style="fill:none;stroke:#263238;stroke-linecap:round;stroke-linejoin:round"></polyline><path d="M246.56,167.12s5.31.27,6,.68.82,4.48.82,4.48" style="fill:none;stroke:#263238;stroke-linecap:round;stroke-linejoin:round"></path><line x1="246.43" y1="164.54" x2="253.53" y2="165.18" style="fill:none;stroke:#263238;stroke-linecap:round;stroke-linejoin:round"></line><path d="M283.9,268.88c-12.88-1.29-18.88-4.52-20.93-7l-1.81,2.26.21,1.66s-24.73-3.74-44.05-1.45-31,8.1-31.79,15.17l10,4.57c14.75,8.73,47.58,10.6,59,11.43s33.25,0,41.56-1.25,12.05-4.78,12.88-11.64c.69-5.66.81-14.43.83-17.32C306.79,267.51,298,270.29,283.9,268.88Z" style="fill:#263238;stroke:#263238;stroke-linecap:round;stroke-linejoin:round"></path><line x1="262.2" y1="266.85" x2="275.08" y2="278.28" style="fill:none;stroke:#fff;stroke-linecap:round;stroke-linejoin:round"></line><line x1="264.28" y1="267.48" x2="273.63" y2="271.01" style="fill:none;stroke:#fff;stroke-linecap:round;stroke-linejoin:round"></line><path d="M218.77,219.73s-16,5.19-21,12L178.21,197a95.44,95.44,0,0,1,29.57-2.8c15.38,1.2,25.57,12,29.77,19Z" style="fill:#fff;stroke:#263238;stroke-linecap:round;stroke-linejoin:round"></path><line x1="193.35" y1="200.42" x2="203.2" y2="218.48" style="fill:none;stroke:#263238;stroke-linecap:round;stroke-linejoin:round"></line><line x1="202.79" y1="198.78" x2="211.41" y2="215.2" style="fill:none;stroke:#263238;stroke-linecap:round;stroke-linejoin:round"></line><line x1="212.24" y1="198.37" x2="219.63" y2="212.74" style="fill:none;stroke:#263238;stroke-linecap:round;stroke-linejoin:round"></line><path d="M285.3,195.35s-2.2,5.59-1.8,9,1.6,25.78,1.6,25.78-18.18-1.2-25.38-3.8-13.38-5.6-13.38-5.6l-1.6,6.4s12.79,11.39,23.58,15.78,31.56,8.59,34,7.59,4.6-23.17,4.4-31.76.2-17.79-3.8-24.18" style="fill:#fff;stroke:#263238;stroke-linecap:round;stroke-linejoin:round"></path><line x1="250.75" y1="222.85" x2="249.1" y2="230.55" style="fill:none;stroke:#263238;stroke-linecap:round;stroke-linejoin:round"></line><path d="M285.1,230.12s4.79,5.79,7.39,7.39" style="fill:#fff;stroke:#263238;stroke-linecap:round;stroke-linejoin:round"></path><path d="M246.34,220.72a33.15,33.15,0,0,1-6.4-5.39c-2.59-3-4.19-3-7.79-3.2s-7.39-3.39-8.39-3.19-1.2,2-.2,3,6,3.6,6,3.6l-10.78,4.2a5.08,5.08,0,0,0,2,1.39c1.4.6,2.8,0,3.4.6s4.2,1.8,6.39,2.6,9.39-.4,9.39-.4l4.8,3.2Z" style="fill:#fff"></path><g style="clip-path:url(#freepik--clip-path-12--inject-17)"><path d="M246.34,220.72a33.15,33.15,0,0,1-6.4-5.39c-2.59-3-4.19-3-7.79-3.2s-7.39-3.39-8.39-3.19-1.2,2-.2,3,6,3.6,6,3.6l-10.78,4.2a5.08,5.08,0,0,0,2,1.39c1.4.6,2.8,0,3.4.6s4.2,1.8,6.39,2.6,9.39-.4,9.39-.4l4.8,3.2Z" style="opacity:0.1"></path></g><path d="M246.34,220.72a33.15,33.15,0,0,1-6.4-5.39c-2.59-3-4.19-3-7.79-3.2s-7.39-3.39-8.39-3.19-1.2,2-.2,3,6,3.6,6,3.6l-10.78,4.2a5.08,5.08,0,0,0,2,1.39c1.4.6,2.8,0,3.4.6s4.2,1.8,6.39,2.6,9.39-.4,9.39-.4l4.8,3.2Z" style="fill:none;stroke:#263238;stroke-linecap:round;stroke-linejoin:round"></path></g><g id="freepik--Books--inject-17"><path d="M236.37,298a32.64,32.64,0,0,1,0,26.12h92.25S340,321.3,340,311c0,0-1.95-9.17-11.12-12.78Z" style="fill:#fff;stroke:#263238;stroke-linecap:round;stroke-linejoin:round"></path><path d="M333,300.18c-4-2.18-7.69-1.95-12.32-2l-8.72,0-22.71-.07L245.11,298c-.72,0-7.88.59-8.19,0a26.31,26.31,0,0,1,1.81,5.35h92.12v19.94A13.91,13.91,0,0,0,340,311c.38-4.53-2.47-8.07-6.13-10.34C333.6,300.5,333.32,300.33,333,300.18Z" style="opacity:0.25"></path><line x1="330.87" y1="300.93" x2="330.87" y2="321.46" style="fill:none;stroke:#263238;stroke-linecap:round;stroke-linejoin:round"></line><line x1="238.88" y1="304.35" x2="253.04" y2="304.35" style="fill:none;stroke:#263238;stroke-linecap:round;stroke-linejoin:round"></line><line x1="243.32" y1="306.3" x2="259.16" y2="306.3" style="fill:none;stroke:#263238;stroke-linecap:round;stroke-linejoin:round"></line><line x1="238.87" y1="315.75" x2="265.27" y2="315.75" style="fill:none;stroke:#263238;stroke-linecap:round;stroke-linejoin:round"></line><line x1="330.57" y1="305.46" x2="318.62" y2="305.46" style="fill:none;stroke:#263238;stroke-linecap:round;stroke-linejoin:round"></line><line x1="330.01" y1="308.8" x2="303.89" y2="308.8" style="fill:none;stroke:#263238;stroke-linecap:round;stroke-linejoin:round"></line><line x1="301.11" y1="308.8" x2="292.22" y2="308.8" style="fill:none;stroke:#263238;stroke-linecap:round;stroke-linejoin:round"></line><line x1="314.17" y1="314.36" x2="330.57" y2="314.36" style="fill:none;stroke:#263238;stroke-linecap:round;stroke-linejoin:round"></line><line x1="238.32" y1="319.36" x2="248.88" y2="319.36" style="fill:none;stroke:#263238;stroke-linecap:round;stroke-linejoin:round"></line><path d="M325.15,327.69H232.48a2.78,2.78,0,1,1,0-5.55h92.67c6.36,0,11.53-4.8,11.53-10.7s-5.17-10.7-11.53-10.7H233.31a2.78,2.78,0,0,1,0-5.56h91.84c9.42,0,17.09,7.3,17.09,16.26S334.57,327.69,325.15,327.69Z" style="fill:#263238"></path><path d="M335.57,330.2a32.63,32.63,0,0,0,0,26.12H243.32s-11.39-2.78-11.39-13.06c0,0,1.94-9.17,11.11-12.79Z" style="fill:#fff;stroke:#263238;stroke-linecap:round;stroke-linejoin:round"></path><path d="M238.91,332.41c4-2.18,7.7-2,12.32-2l8.72,0,22.71-.07,44.17-.13c.72,0,7.88.59,8.2,0a25.61,25.61,0,0,0-1.82,5.35H241.09v19.93a13.88,13.88,0,0,1-9.16-12.22c-.39-4.53,2.46-8.08,6.13-10.35C238.34,332.73,238.63,332.57,238.91,332.41Z" style="opacity:0.25"></path><line x1="240.82" y1="334.6" x2="240.82" y2="352.64" style="fill:none;stroke:#263238;stroke-linecap:round;stroke-linejoin:round"></line><line x1="333.07" y1="336.59" x2="318.9" y2="336.59" style="fill:none;stroke:#263238;stroke-linecap:round;stroke-linejoin:round"></line><line x1="328.62" y1="338.53" x2="312.79" y2="338.53" style="fill:none;stroke:#263238;stroke-linecap:round;stroke-linejoin:round"></line><line x1="333.07" y1="347.98" x2="306.67" y2="347.98" style="fill:none;stroke:#263238;stroke-linecap:round;stroke-linejoin:round"></line><line x1="241.37" y1="337.7" x2="253.32" y2="337.7" style="fill:none;stroke:#263238;stroke-linecap:round;stroke-linejoin:round"></line><line x1="241.93" y1="341.03" x2="268.05" y2="341.03" style="fill:none;stroke:#263238;stroke-linecap:round;stroke-linejoin:round"></line><line x1="270.83" y1="341.03" x2="279.72" y2="341.03" style="fill:none;stroke:#263238;stroke-linecap:round;stroke-linejoin:round"></line><line x1="257.77" y1="346.59" x2="241.37" y2="346.59" style="fill:none;stroke:#263238;stroke-linecap:round;stroke-linejoin:round"></line><line x1="333.63" y1="351.59" x2="323.07" y2="351.59" style="fill:none;stroke:#263238;stroke-linecap:round;stroke-linejoin:round"></line><path d="M246.79,359.93h92.67a2.78,2.78,0,1,0,0-5.56H246.79c-6.36,0-11.53-4.8-11.53-10.7s5.17-10.7,11.53-10.7h91.84a2.78,2.78,0,1,0,0-5.55H246.79c-9.42,0-17.09,7.29-17.09,16.25S237.37,359.93,246.79,359.93Z" style="fill:#407BFF;stroke:#263238;stroke-linecap:round;stroke-linejoin:round"></path><path d="M236.37,362.58a32.64,32.64,0,0,1,0,26.12h92.25s11.4-2.78,11.4-13.06c0,0-1.95-9.17-11.12-12.79Z" style="fill:#fff;stroke:#263238;stroke-linecap:round;stroke-linejoin:round"></path><path d="M333,364.79c-4-2.18-7.69-2-12.32-2l-8.72,0-22.71-.06-44.17-.14c-.72,0-7.88.6-8.19,0a26,26,0,0,1,1.81,5.35h92.12v19.93A13.9,13.9,0,0,0,340,375.64c.38-4.53-2.47-8.07-6.13-10.35C333.6,365.11,333.32,365,333,364.79Z" style="opacity:0.25"></path><line x1="330.87" y1="365.54" x2="330.87" y2="386.08" style="fill:none;stroke:#263238;stroke-linecap:round;stroke-linejoin:round"></line><line x1="238.88" y1="368.97" x2="253.04" y2="368.97" style="fill:none;stroke:#263238;stroke-linecap:round;stroke-linejoin:round"></line><line x1="243.32" y1="370.91" x2="259.16" y2="370.91" style="fill:none;stroke:#263238;stroke-linecap:round;stroke-linejoin:round"></line><line x1="238.87" y1="380.36" x2="265.27" y2="380.36" style="fill:none;stroke:#263238;stroke-linecap:round;stroke-linejoin:round"></line><line x1="330.57" y1="370.08" x2="318.62" y2="370.08" style="fill:none;stroke:#263238;stroke-linecap:round;stroke-linejoin:round"></line><line x1="330.01" y1="373.41" x2="303.89" y2="373.41" style="fill:none;stroke:#263238;stroke-linecap:round;stroke-linejoin:round"></line><line x1="301.11" y1="373.41" x2="292.22" y2="373.41" style="fill:none;stroke:#263238;stroke-linecap:round;stroke-linejoin:round"></line><line x1="314.17" y1="378.97" x2="330.57" y2="378.97" style="fill:none;stroke:#263238;stroke-linecap:round;stroke-linejoin:round"></line><line x1="238.32" y1="383.97" x2="248.88" y2="383.97" style="fill:none;stroke:#263238;stroke-linecap:round;stroke-linejoin:round"></line><path d="M325.15,392.31H232.48a2.78,2.78,0,1,1,0-5.56h92.67c6.36,0,11.53-4.8,11.53-10.7s-5.17-10.69-11.53-10.69H233.31a2.78,2.78,0,0,1,0-5.56h91.84c9.42,0,17.09,7.29,17.09,16.25S334.57,392.31,325.15,392.31Z" style="fill:#263238"></path><path d="M335.57,394.81a32.64,32.64,0,0,0,0,26.12H243.32s-11.39-2.78-11.39-13.06c0,0,1.94-9.17,11.11-12.78Z" style="fill:#fff;stroke:#263238;stroke-linecap:round;stroke-linejoin:round"></path><path d="M238.91,397c4-2.18,7.7-1.95,12.32-2l8.72,0,22.71-.07,44.17-.13c.72,0,7.88.59,8.2,0a25.89,25.89,0,0,0-1.82,5.35H241.09V420.1a13.89,13.89,0,0,1-9.16-12.23c-.39-4.53,2.46-8.07,6.13-10.35C238.34,397.34,238.63,397.18,238.91,397Z" style="opacity:0.25"></path><line x1="240.82" y1="399.21" x2="240.82" y2="417.25" style="fill:none;stroke:#263238;stroke-linecap:round;stroke-linejoin:round"></line><line x1="333.07" y1="401.2" x2="318.9" y2="401.2" style="fill:none;stroke:#263238;stroke-linecap:round;stroke-linejoin:round"></line><line x1="328.62" y1="403.15" x2="312.79" y2="403.15" style="fill:none;stroke:#263238;stroke-linecap:round;stroke-linejoin:round"></line><line x1="333.07" y1="412.59" x2="306.67" y2="412.59" style="fill:none;stroke:#263238;stroke-linecap:round;stroke-linejoin:round"></line><line x1="241.37" y1="402.31" x2="253.32" y2="402.31" style="fill:none;stroke:#263238;stroke-linecap:round;stroke-linejoin:round"></line><line x1="241.93" y1="405.65" x2="268.05" y2="405.65" style="fill:none;stroke:#263238;stroke-linecap:round;stroke-linejoin:round"></line><line x1="270.83" y1="405.65" x2="279.72" y2="405.65" style="fill:none;stroke:#263238;stroke-linecap:round;stroke-linejoin:round"></line><line x1="257.77" y1="411.2" x2="241.37" y2="411.2" style="fill:none;stroke:#263238;stroke-linecap:round;stroke-linejoin:round"></line><line x1="333.63" y1="416.21" x2="323.07" y2="416.21" style="fill:none;stroke:#263238;stroke-linecap:round;stroke-linejoin:round"></line><path d="M246.79,424.54h92.67a2.78,2.78,0,1,0,0-5.56H246.79c-6.36,0-11.53-4.79-11.53-10.69s5.17-10.7,11.53-10.7h91.84a2.78,2.78,0,0,0,0-5.56H246.79c-9.42,0-17.09,7.29-17.09,16.26S237.37,424.54,246.79,424.54Z" style="fill:#407BFF;stroke:#263238;stroke-linecap:round;stroke-linejoin:round"></path></g><g id="freepik--Plants--inject-17"><path d="M380.33,281.91c2.22,1,7.65.85,7.66.85s-1.17-3.56-1.27-3.77c-1.2-2.5-5-6.62-8-6.2a3.66,3.66,0,0,0-2.94,4.59C376.25,279.5,378.44,281.08,380.33,281.91Z" style="fill:#263238"></path><path d="M451.5,263.42c-3.08-.34-6.73,3.88-7.86,6.41-.1.22-1.22,3.8-1.17,3.8h.07c-.58.66-1.2,1.38-1.86,2.17-1.2,1.48-2.55,3.17-3.89,5.09a64.54,64.54,0,0,0-4,6.44,48.68,48.68,0,0,0-3.45,7.76s0,.06,0,.1c0-.91,0-3.45,0-3.64-.36-2.74-2.66-7.83-5.7-8.39a3.65,3.65,0,0,0-4.22,3.44c-.18,2.18,1.4,4.36,2.94,5.73,1.73,1.56,6.55,3.06,6.94,3.18a64,64,0,0,0-2,8.4c-.3,1.66-.54,3.34-.77,5,0-.78,0-1.48,0-1.58-.35-2.74-2.65-7.83-5.69-8.39a3.66,3.66,0,0,0-4.23,3.44c-.18,2.18,1.4,4.36,2.94,5.74s5.65,2.75,6.73,3.1l-.24,1.94c-.37,3.11-.73,6.21-1.17,9.24-.16,1.07-.35,2.12-.54,3.16,0-.69,0-1.28,0-1.37-.35-2.74-2.65-7.83-5.69-8.39a3.66,3.66,0,0,0-4.23,3.44c-.18,2.18,1.4,4.36,2.94,5.74s5.25,2.62,6.54,3c-.23,1.07-.45,2.13-.72,3.16-.2.69-.34,1.38-.58,2.06s-.44,1.37-.65,2c-.47,1.28-.94,2.6-1.43,3.83-.33.87-.66,1.68-1,2.5.17-1.06.45-3.14.46-3.32a14.23,14.23,0,0,0-1.91-6.92,4.41,4.41,0,0,0,0-.81,3.67,3.67,0,0,0-4.48-3.11c-3,.8-4.89,6-5,8.81,0,.16.1,1.94.18,3.06-.15-.65-.29-1.28-.45-1.95-.31-1.33-.67-2.64-1-4.05l-.62-2c-.19-.68-.48-1.39-.72-2.09-.59-1.62-1.27-3.23-2-4.83,1.16-.28,5.26-1.33,6.9-2.59s3.38-3.31,3.36-5.5a3.66,3.66,0,0,0-4-3.75c-3.07.34-5.74,5.24-6.3,8,0,.17-.22,2.15-.3,3.25-.44-1-.87-1.93-1.35-2.89-1.37-2.77-2.85-5.53-4.32-8.29L396.35,310c.41-.09,5.31-1.23,7.15-2.65,1.64-1.25,3.38-3.31,3.36-5.49a3.66,3.66,0,0,0-4-3.75c-3.07.33-5.74,5.23-6.3,7.94,0,.2-.3,3.06-.33,3.79-1-1.86-1.92-3.73-2.78-5.61a63.55,63.55,0,0,1-3-7.8c.19-.05,5.31-1.21,7.19-2.66,1.64-1.25,3.38-3.31,3.36-5.49a3.65,3.65,0,0,0-3.95-3.75c-3.08.33-5.75,5.23-6.31,7.94,0,.21-.32,3.29-.33,3.85l-.16-.46a48.65,48.65,0,0,1-1.57-8.24c-.17-1.54-.25-3-.29-4.46,1-.12,5.42-.71,7.27-1.83s3.72-2.92,3.94-5.09a3.67,3.67,0,0,0-3.52-4.17c-3.1,0-6.29,4.58-7.14,7.21,0,.14-.36,1.65-.57,2.75,0-.65,0-1.33,0-2,0-2.34.15-4.48.3-6.38.09-1.08.2-2,.3-3,.9-.62,4.48-3.14,5.58-4.95s1.95-4.31,1.15-6.34a3.65,3.65,0,0,0-5-2.07c-2.75,1.42-3.47,7-3,9.68,0,.24,1.08,3.85,1.13,3.82l.05,0c-.12.88-.24,1.81-.35,2.84-.19,1.9-.38,4-.44,6.39a65.76,65.76,0,0,0,.18,7.59,47.65,47.65,0,0,0,1.41,8.38l0,.1c-.49-.77-1.92-2.86-2.05-3-1.81-2.09-6.53-5.07-9.38-3.86a3.67,3.67,0,0,0-1.62,5.21c1.05,1.91,3.57,2.86,5.61,3.16,2.31.33,7.16-1.07,7.54-1.19a65.25,65.25,0,0,0,2.94,8.14c.67,1.55,1.39,3.08,2.13,4.61-.44-.65-.84-1.22-.91-1.3-1.81-2.09-6.53-5.06-9.38-3.85a3.66,3.66,0,0,0-1.62,5.2c1.05,1.91,3.57,2.86,5.61,3.16s6.23-.81,7.33-1.12l.87,1.75c1.4,2.79,2.82,5.58,4.12,8.35.46,1,.87,2,1.29,2.94-.39-.58-.72-1.06-.78-1.13-1.81-2.09-6.54-5.07-9.39-3.86a3.67,3.67,0,0,0-1.62,5.21c1.05,1.91,3.57,2.86,5.62,3.16s5.82-.71,7.13-1.07c.4,1,.8,2,1.14,3,.22.69.48,1.34.66,2s.38,1.38.57,2.06c.32,1.32.66,2.69.93,4,.2.91.38,1.77.55,2.64-.44-1-1.36-2.88-1.45-3-1.47-2.34-5.69-6-8.69-5.23a3.66,3.66,0,0,0-2.39,4.9c.75,2,3.1,3.37,5.07,4,2.17.67,7,.06,7.59,0,.29,1.44.55,2.84.78,4.17.81,4.59,1.31,8.45,1.63,11.15,0,.48.1.91.14,1.32H400.3L403.7,424h15.87l3.4-66.37H414.3c.06-.14.12-.26.19-.4,1.19-2.48,2.84-6.05,4.62-10.41.57-1.38,1.15-2.86,1.73-4.39.58.12,5.35,1.09,7.57.59,2-.46,4.45-1.6,5.35-3.59a3.66,3.66,0,0,0-2-5.06c-2.94-1-7.41,2.35-9.06,4.57-.09.13-1,1.67-1.53,2.65.23-.62.47-1.23.7-1.87.47-1.28.9-2.57,1.36-4,.21-.68.41-1.36.62-2s.36-1.43.55-2.14c.4-1.68.72-3.4,1-5.13,1.12.4,5.11,1.79,7.18,1.65s4.64-.9,5.83-2.74a3.66,3.66,0,0,0-1.23-5.31c-2.75-1.42-7.68,1.2-9.64,3.15-.12.12-1.37,1.68-2,2.55.16-1.05.33-2.09.47-3.15.38-3.07.67-6.19,1-9.3.09-.95.2-1.9.3-2.85.39.15,5.1,1.9,7.42,1.74,2.06-.15,4.64-.9,5.84-2.73a3.66,3.66,0,0,0-1.24-5.31c-2.75-1.42-7.68,1.19-9.64,3.14-.15.15-1.94,2.39-2.37,3,.22-2.09.46-4.17.78-6.21a64.07,64.07,0,0,1,1.79-8.18c.18.07,5.09,1.93,7.46,1.76,2.06-.14,4.65-.9,5.84-2.73a3.66,3.66,0,0,0-1.23-5.31c-2.75-1.42-7.68,1.19-9.64,3.14-.16.16-2.09,2.57-2.4,3,0-.15.07-.32.12-.47a47,47,0,0,1,3.24-7.74c.7-1.37,1.45-2.65,2.21-3.88.88.44,4.92,2.4,7.07,2.49s4.71-.39,6.1-2.08a3.66,3.66,0,0,0-.64-5.41c-2.58-1.71-7.77.34-9.93,2.07-.12.09-1.21,1.18-2,2,.35-.55.7-1.12,1.05-1.64,1.29-1.95,2.6-3.66,3.77-5.16.67-.85,1.29-1.6,1.88-2.3,1.09,0,5.47-.15,7.39-1.05s4-2.52,4.45-4.65A3.65,3.65,0,0,0,451.5,263.42ZM417.42,346.1c-1.86,4.29-3.57,7.78-4.8,10.21-.25.48-.47.92-.67,1.32h-.21c-.06-.48-.13-1-.21-1.58-.37-2.72-1-6.61-1.88-11.23-.29-1.46-.63-3-1-4.61a41.8,41.8,0,0,0,4.24-2c1.58,1.71,5.64,3.72,6.17,4C418.51,343.55,418,344.87,417.42,346.1Z" style="fill:#263238"></path><path d="M435.28,283.1c.05,0,1-3.61,1-3.84.38-2.74-.5-8.25-3.28-9.6a3.67,3.67,0,0,0-5,2.21c-.75,2.05.2,4.57,1.32,6.3C430.68,280.21,435.28,283.1,435.28,283.1Z" style="fill:#263238"></path></g><g id="freepik--Ground--inject-17"><line x1="56" y1="424.54" x2="451" y2="424.54" style="fill:none;stroke:#263238;stroke-linecap:round;stroke-linejoin:round;stroke-width:2px"></line></g></svg>
